<?xml version="1.0" encoding="UTF-8"?>
<!DOCTYPE svg PUBLIC "-//W3C//DTD SVG 1.1//EN" "http://www.w3.org/Graphics/SVG/1.1/DTD/svg11.dtd">
<!-- Creator: CorelDRAW 2019 (64-Bit) -->
<svg xmlns="http://www.w3.org/2000/svg" xml:space="preserve" width="9.20725in" height="2.9in" version="1.1" style="shape-rendering:geometricPrecision; text-rendering:geometricPrecision; image-rendering:optimizeQuality; fill-rule:evenodd; clip-rule:evenodd"
viewBox="0 0 9206.83 2899.87"
 xmlns:xlink="http://www.w3.org/1999/xlink"
 xmlns:xodm="http://www.corel.com/coreldraw/odm/2003">
 <defs>
  <style type="text/css">
   <![CDATA[
    .fil0 {fill:none}
    .fil21 {fill:#201E1E;fill-rule:nonzero}
    .fil17 {fill:url(#id0)}
    .fil14 {fill:url(#id1)}
    .fil20 {fill:url(#id2)}
    .fil8 {fill:url(#id3)}
    .fil19 {fill:url(#id4)}
    .fil11 {fill:url(#id5)}
    .fil5 {fill:url(#id6)}
    .fil7 {fill:url(#id7)}
    .fil13 {fill:url(#id8)}
    .fil2 {fill:url(#id9)}
    .fil9 {fill:url(#id10)}
    .fil6 {fill:url(#id11)}
    .fil12 {fill:url(#id12)}
    .fil10 {fill:url(#id13)}
    .fil18 {fill:url(#id14)}
    .fil16 {fill:url(#id15)}
    .fil4 {fill:url(#id16)}
    .fil1 {fill:url(#id17)}
    .fil3 {fill:url(#id18)}
    .fil15 {fill:url(#id19)}
   ]]>
  </style>
  <linearGradient id="id0" gradientUnits="userSpaceOnUse" x1="1820.78" y1="1733.34" x2="916.59" y2="765.21">
   <stop offset="0" style="stop-opacity:1; stop-color:#1CD0E1"/>
   <stop offset="1" style="stop-opacity:1; stop-color:#178DE4"/>
  </linearGradient>
  <linearGradient id="id1" gradientUnits="userSpaceOnUse" xlink:href="#id0" x1="1820.74" y1="1733.3" x2="916.63" y2="765.18">
  </linearGradient>
  <linearGradient id="id2" gradientUnits="userSpaceOnUse" xlink:href="#id0" x1="1820.77" y1="1733.33" x2="916.59" y2="765.22">
  </linearGradient>
  <linearGradient id="id3" gradientUnits="userSpaceOnUse" xlink:href="#id0" x1="1820.77" y1="1733.33" x2="916.6" y2="765.22">
  </linearGradient>
  <linearGradient id="id4" gradientUnits="userSpaceOnUse" xlink:href="#id0" x1="1820.78" y1="1733.35" x2="916.6" y2="765.21">
  </linearGradient>
  <linearGradient id="id5" gradientUnits="userSpaceOnUse" xlink:href="#id0" x1="1820.78" y1="1733.34" x2="916.6" y2="765.23">
  </linearGradient>
  <linearGradient id="id6" gradientUnits="userSpaceOnUse" xlink:href="#id0" x1="1820.78" y1="1733.35" x2="916.6" y2="765.21">
  </linearGradient>
  <linearGradient id="id7" gradientUnits="userSpaceOnUse" xlink:href="#id0" x1="1820.78" y1="1733.33" x2="916.58" y2="765.22">
  </linearGradient>
  <linearGradient id="id8" gradientUnits="userSpaceOnUse" xlink:href="#id0" x1="1820.77" y1="1733.36" x2="916.61" y2="765.23">
  </linearGradient>
  <linearGradient id="id9" gradientUnits="userSpaceOnUse" xlink:href="#id0" x1="1820.78" y1="1733.34" x2="916.59" y2="765.22">
  </linearGradient>
  <linearGradient id="id10" gradientUnits="userSpaceOnUse" xlink:href="#id0" x1="1820.78" y1="1733.35" x2="916.6" y2="765.21">
  </linearGradient>
  <linearGradient id="id11" gradientUnits="userSpaceOnUse" xlink:href="#id0" x1="1820.78" y1="1733.33" x2="916.59" y2="765.21">
  </linearGradient>
  <linearGradient id="id12" gradientUnits="userSpaceOnUse" xlink:href="#id0" x1="1820.79" y1="1733.34" x2="916.58" y2="765.21">
  </linearGradient>
  <linearGradient id="id13" gradientUnits="userSpaceOnUse" xlink:href="#id0" x1="1820.79" y1="1733.34" x2="916.58" y2="765.21">
  </linearGradient>
  <linearGradient id="id14" gradientUnits="userSpaceOnUse" xlink:href="#id0" x1="1820.81" y1="1733.32" x2="916.61" y2="765.24">
  </linearGradient>
  <linearGradient id="id15" gradientUnits="userSpaceOnUse" xlink:href="#id0" x1="1820.78" y1="1733.33" x2="916.59" y2="765.21">
  </linearGradient>
  <linearGradient id="id16" gradientUnits="userSpaceOnUse" xlink:href="#id0" x1="1820.78" y1="1733.33" x2="916.6" y2="765.22">
  </linearGradient>
  <linearGradient id="id17" gradientUnits="userSpaceOnUse" xlink:href="#id0" x1="1820.78" y1="1733.33" x2="916.59" y2="765.22">
  </linearGradient>
  <linearGradient id="id18" gradientUnits="userSpaceOnUse" xlink:href="#id0" x1="1820.78" y1="1733.35" x2="916.59" y2="765.22">
  </linearGradient>
  <linearGradient id="id19" gradientUnits="userSpaceOnUse" xlink:href="#id0" x1="1820.74" y1="1733.28" x2="916.64" y2="765.19">
  </linearGradient>
 </defs>
 <g id="Layer_x0020_1">
  <metadata id="CorelCorpID_0Corel-Layer"/>
  <g id="_2291674765056">
   <rect class="fil0" x="0" width="9206.83" height="2899.87"/>
   <g>
    <g>
     <path class="fil1" d="M1192.9 1175.64l0 148.69c0,7.21 1.52,13.41 4.96,17.57 12.62,15.23 33.34,1.84 33.34,-8.55l0 -150.94 11.26 0 0 387.49c0,41.36 56.32,42.26 56.32,0l0 -223.03 11.27 0 0 229.79c0,31.13 54.07,34.83 54.07,-4.51l0 -389.75 11.26 0 0 146.43c0,26.64 38.3,26.3 38.3,0l0 -157.7c0,-25.84 -21.01,-56.32 -56.32,-56.32l-108.14 0c-33.89,0 -56.32,27.33 -56.32,60.83z"/>
     <path class="fil2" d="M857.22 1727.6l0 130.67c0,9.64 6.94,18.02 15.77,18.02 24.23,0 18.02,-36.94 18.02,-60.83 0,-26.29 0,-52.57 0,-78.85l6.76 0 0 279.36c0,39.52 -6.5,72.09 27.04,72.09 11.13,0 20.27,-9.14 20.27,-20.27l0 -193.75 9.01 0 0 186.99c0,36.25 47.31,34.86 47.31,4.5l0 -328.92 9.01 0 0 121.66c0,24.07 33.79,24.54 33.79,-2.25l0 -119.4c0,-71.76 -61.74,-58.58 -130.66,-58.58 -33.99,0 -56.32,19.98 -56.32,49.56z"/>
     <path class="fil3" d="M1555.61 1736.61l0 119.4c0,26.99 33.79,26.15 33.79,2.25l0 -121.66 9.01 0 0 328.92c0,30.36 47.31,31.74 47.31,-4.5l0 -186.99 9.01 0 0 193.75c0,14.41 11,20.27 24.78,20.27 28.22,0 22.53,-41.19 22.53,-69.84l0 -281.61 6.76 0c0,25.53 0,51.06 0,76.6 0,22 -5.04,63.08 15.77,63.08 10.9,0 18.02,-7.13 18.02,-18.02l0 -130.67c0,-14.15 -8.29,-29.04 -15.59,-36.23 -19.99,-19.72 -77.98,-13.33 -115.08,-13.33 -37.52,0 -56.32,21.33 -56.32,58.58z"/>
     <path class="fil4" d="M1747.11 1315.32l0 99.13c0,41.24 33.79,33.36 33.79,11.26l0 -121.65 9.01 0 0 324.41c0,37.42 47.31,33.46 47.31,4.5l0 -191.5 9.01 0 0 191.5c0,30.36 47.31,31.74 47.31,-4.5l0 -324.41 9.01 0 0 126.16c0,15.02 31.54,21.24 31.54,-4.51l0 -132.92c0,-12.71 -8.55,-27.66 -15.19,-34.37 -19.27,-19.47 -78.92,-12.94 -115.48,-12.94 -43.84,0 -56.32,26.17 -56.32,69.84z"/>
     <path class="fil5" d="M665.73 1292.79l0 132.92c0,25.74 31.54,19.53 31.54,4.51l0 -126.16 9.01 0 0 324.41c0,36.25 47.31,34.86 47.31,4.5l0 -191.5 9.01 0 0 191.5c0,28.95 47.31,32.92 47.31,-4.5l0 -324.41 9.01 0 0 121.65c0,22.1 33.79,29.98 33.79,-11.26l0 -99.13c0,-83.92 -46.28,-69.84 -135.17,-69.84 -31.54,0 -51.82,22.57 -51.82,47.31z"/>
     <path class="fil6" d="M1501.54 948.1l0 126.16c0,22.27 33.79,27.96 33.79,-4.51l0 -117.15 9.02 0 0 331.17c0,22.81 47.47,37.98 47.39,-15.69l-0.08 -178.06 6.76 0 -0.06 175.78c-0.32,57.46 47.36,40.16 47.36,17.97l0 -331.17 9.01 0 0 117.15c0,30.88 33.79,30.46 33.79,0l0 -119.4c0,-26.87 -16.67,-54.07 -42.81,-54.07l-101.38 0c-26,0 -42.81,25.32 -42.81,51.82z"/>
     <path class="fil7" d="M911.29 950.35l0 119.4c0,30.88 33.79,30.46 33.79,0l0 -117.15 9.01 0 0 331.17c0,22.81 47.47,37.98 47.39,-15.69l-0.08 -178.06 6.76 0 -0.05 175.78c-0.32,57.46 47.36,40.16 47.36,17.97l0 -331.17 9.02 0 0 117.15c0,32.55 33.79,26.66 33.79,4.51l0 -126.16c0,-26.5 -16.81,-51.82 -42.81,-51.82l-101.38 0c-26.14,0 -42.81,27.2 -42.81,54.07z"/>
     <path class="fil8" d="M1251.47 1056.24c0,65.13 96.43,66.02 98.32,2 1.91,-64.57 -98.32,-66.05 -98.32,-2z"/>
     <path class="fil9" d="M1186.14 1639.74c2.39,8.94 8.33,10.28 13.52,18.02l-71.56 70.38c-4.44,-6.37 -8.54,-11.98 -16.31,-14.06 -0.68,8.18 -12.8,52.39 -15.77,58.58 20.34,0 40.6,-11.83 60.82,-13.52 -2.39,-8.94 -8.33,-10.27 -13.52,-18.02l70.39 -69.29c7.2,4.64 8.53,10.57 17.47,12.96 0.41,-18.26 11.92,-39.36 13.52,-58.58 -18.26,0.41 -39.36,11.92 -58.58,13.52z"/>
     <path class="fil10" d="M963.11 1545.12c2.46,9.21 7.46,8.24 24.66,18.14 6.93,3.98 21.55,13.82 29.4,15.65l0 -22.53c120.01,0 105.88,-7.55 105.88,22.53l54.07 -29.29c-4.75,-7.09 -44.42,-28.69 -54.07,-33.79l0 22.53 -105.88 0 0 -22.53c-6.94,1.85 -18.58,10.1 -26.26,14.29 -7.68,4.19 -20.41,13.02 -27.81,15z"/>
     <path class="fil11" d="M1373.13 1684.79c8.94,-2.39 10.27,-8.33 18.02,-13.52l69.28 70.39c-4.63,7.2 -10.57,8.53 -12.96,17.47 19.21,1.6 40.32,13.11 58.58,13.52 -0.41,-18.26 -11.92,-39.36 -13.52,-58.58 -8.94,2.39 -10.28,8.33 -18.03,13.52 -7.92,-5.31 -27.9,-26.09 -35.51,-34.33 -6.28,-6.79 -8.64,-11.05 -15.73,-18.06 -6.48,-6.41 -11.37,-12.61 -18.6,-17.45 5.19,-7.75 11.13,-9.08 13.52,-18.02 -8.91,-0.2 -20.9,-4.54 -29.3,-6.75 -9.38,-2.46 -18.12,-6.52 -29.28,-6.77 0.21,9.43 4.56,20.35 6.76,29.29 2.2,8.94 6.55,19.86 6.76,29.29z"/>
     <path class="fil12" d="M1427.2 1549.62c8.76,2.04 18.05,9.61 26.34,14.22 10.15,5.65 17.88,9.86 27.73,15.07 0,-30.08 -14.12,-22.53 105.88,-22.53l0 22.53c7.37,-1.72 20.72,-10.51 27.99,-14.81 15.26,-9.03 23.63,-9.84 26.07,-18.98l-54.07 -29.29 0 22.53 -105.88 0 0 -22.53c-10.33,5.46 -49.21,26.54 -54.07,33.79z"/>
     <path class="fil13" d="M911.29 1630.73c0,54.86 83.35,53.08 83.35,0 0,-53.67 -83.35,-54.74 -83.35,0z"/>
     <path class="fil14" d="M965.36 846.73c0,10.41 5.71,21.34 10.8,27.49 20.5,24.75 72.56,14.34 72.56,-27.49 0,-55.38 -83.36,-52.74 -83.36,0z"/>
     <path class="fil15" d="M1551.11 846.73c0,55.38 83.36,52.73 83.36,0 0,-10.42 -5.71,-21.35 -10.8,-27.5 -20.5,-24.75 -72.56,-14.34 -72.56,27.5z"/>
     <path class="fil16" d="M1605.18 1630.73c0,21.48 20.29,40.55 36.04,40.55 14.88,0 25.86,-0.91 36.72,-12.85 18.98,-20.86 14.81,-68.26 -34.47,-68.26 -21.32,0 -38.3,19.6 -38.3,40.55z"/>
     <path class="fil17" d="M719.79 1195.92c0,26.05 16.75,42.8 42.81,42.8 36.06,0 51.74,-46.31 27.62,-70.43 -24.11,-24.11 -70.43,-8.43 -70.43,27.63z"/>
     <path class="fil18" d="M1837.22 1238.72c26.06,0 42.81,-16.75 42.81,-42.8 0,-36.06 -46.32,-51.74 -70.43,-27.63 -24.11,24.12 -8.43,70.43 27.63,70.43z"/>
     <path class="fil19" d="M1474.51 1360.38l15.25 16.3 -55.25 56.34 -15.8 -16.85c-5.37,21.35 -11.49,40.72 -16.29,61.36 8.7,-0.2 54.45,-12.72 60.83,-15.77l-13.97 -15.33 53.97 -55.06 15.88 14.53c3.8,-7.45 16,-51.61 16.21,-61.28 -20.82,4.85 -40.19,10.96 -60.83,15.77z"/>
     <path class="fil20" d="M1082.51 1405.44c8.94,-2.39 10.27,-8.33 18.02,-13.52l54.62 53.51 -14.52 15.88c7.45,3.8 51.61,16 61.28,16.22l-15.77 -60.83 -17.56 16.24 -53.98 -55.09c4.64,-7.2 10.58,-8.53 12.97,-17.47 -5.55,-2.66 -20.19,-5.85 -27.99,-8.06 -10.84,-3.08 -20.4,-5.34 -30.59,-7.71 0.46,20.46 13.09,41.39 13.52,60.83z"/>
    </g>
    <path class="fil21" d="M2414.81 1663.3l0 -261.06 285.52 0 0 -114.05 -285.52 0 0 -158.83 329.73 0 0 -114.9 -491.84 0 0 648.84 162.1 0zm408.94 0l491.84 0 0 -116.59 -329.73 0 0 -532.26 -162.1 0 0 648.84zm566.43 -648.84l0 648.84 162.1 0 0 -215.44 156.58 0c148.28,0 262.49,-80.26 262.49,-218.81 0,-137.71 -116.97,-214.59 -259.73,-214.59l-321.44 0zm162.1 318.51l0 -203.61 143.68 0c60.79,0 111.44,32.1 111.44,102.22 0,70.12 -50.66,101.39 -111.44,101.39l-143.68 0zm726.7 5.91c0,190.09 121.58,333.72 349.07,333.72 229.34,0 350,-145.32 350,-333.72 0,-190.09 -121.58,-333.72 -349.07,-333.72 -229.34,0 -350,145.32 -350,333.72zm163.95 0c0,-120.81 58.95,-219.66 185.13,-219.66 125.26,0 186.05,98.85 186.05,219.66 0,120.81 -58.94,219.66 -185.13,219.66 -125.26,0 -186.05,-98.85 -186.05,-219.66zm950.5 -129.26l-107.76 312.59 -1.84 0 -107.76 -312.59 -159.34 0 184.21 453.68 161.18 0 184.2 -453.68 -152.89 0zm323.28 183.33c6.45,-56.6 36.84,-92.09 96.71,-92.09 62.63,0 86.58,35.48 92.11,92.09l-188.81 0zm226.58 126.73c-30.4,37.17 -69.08,52.38 -111.45,52.38 -75.52,0 -106.83,-37.18 -115.13,-95.47l333.42 0c2.76,-14.36 3.68,-34.64 3.68,-53.23 0,-125.88 -78.29,-223.04 -239.47,-223.04 -163.03,0 -250.52,100.54 -250.52,237.4 0,139.4 88.42,234.87 263.41,234.87 102.24,0 164.87,-32.1 209.08,-80.26l-93.02 -72.65zm193.42 143.62l152.89 0 0 -249.23c0,-49.84 41.45,-92.09 117.89,-92.09 16.58,0 35.92,1.69 46.97,3.38l0 -116.59c-13.82,-4.22 -29.48,-7.6 -46.97,-7.6 -55.26,0 -95.79,31.26 -123.42,80.26l-1.84 0 -3.68 -71.81 -141.84 0 0 453.68zm580.25 9.29c148.28,0 233.02,-61.67 233.02,-154.61 0,-95.47 -92.1,-120.81 -183.29,-137.71 -81.05,-14.36 -114.21,-21.12 -114.21,-49 0,-18.59 21.18,-33.79 65.39,-33.79 49.74,0 110.52,16.05 161.18,46.47l59.87 -88.71c-56.18,-32.1 -124.34,-54.91 -220.12,-54.91 -150.13,0 -216.45,67.59 -216.45,146.16 0,89.55 81.05,123.35 175.92,140.25 81.05,14.36 122.5,21.12 122.5,50.69 0,27.04 -33.16,38.02 -81.97,38.02 -57.11,0 -121.58,-18.59 -171.32,-51.53l-66.32 89.55c58.95,34.64 132.63,59.14 235.79,59.14zm440.25 -279.65c6.44,-56.6 36.84,-92.09 96.71,-92.09 62.63,0 86.58,35.48 92.11,92.09l-188.81 0zm226.57 126.73c-30.4,37.17 -69.08,52.38 -111.44,52.38 -75.52,0 -106.84,-37.18 -115.13,-95.47l333.41 0c2.76,-14.36 3.68,-34.64 3.68,-53.23 0,-125.88 -78.29,-223.04 -239.47,-223.04 -163.02,0 -250.52,100.54 -250.52,237.4 0,139.4 88.42,234.87 263.42,234.87 102.24,0 164.87,-32.1 209.08,-80.26l-93.03 -72.65zm620.78 143.62l0 -301.61c0,-99.69 -72.76,-161.37 -221.05,-161.37 -110.53,0 -176.84,34.64 -213.68,105.61l114.21 52.38c13.81,-32.95 41.44,-56.61 91.18,-56.61 49.74,0 78.29,25.35 78.29,63.36l0 27.04c-80.13,2.54 -153.81,6.76 -205.39,22.81 -68.15,21.12 -94.87,65.9 -94.87,119.12 0,80.26 62.63,138.56 160.26,138.56 64.47,0 115.13,-26.19 144.6,-71.82l1.85 0 3.68 62.52 140.92 0zm-236.71 -87.87c-42.37,0 -64.47,-21.96 -64.47,-49 0,-32.95 28.55,-43.08 58.02,-47.31 29.47,-4.22 63.55,-6.76 92.1,-8.45l0 23.66c0,46.47 -33.15,81.1 -85.65,81.1zm540.65 97.16c148.28,0 233.02,-61.67 233.02,-154.61 0,-95.47 -92.1,-120.81 -183.29,-137.71 -81.05,-14.36 -114.21,-21.12 -114.21,-49 0,-18.59 21.18,-33.79 65.39,-33.79 49.74,0 110.52,16.05 161.18,46.47l59.87 -88.71c-56.18,-32.1 -124.34,-54.91 -220.13,-54.91 -150.13,0 -216.44,67.59 -216.44,146.16 0,89.55 81.05,123.35 175.92,140.25 81.05,14.36 122.5,21.12 122.5,50.69 0,27.04 -33.16,38.02 -81.97,38.02 -57.1,0 -121.58,-18.59 -171.31,-51.53l-66.32 89.55c58.95,34.64 132.63,59.14 235.79,59.14z"/>
    <g>
     <path class="fil21" d="M2292.04 1958.94l0 -6.15c6.88,-0.57 12.29,-1.6 16.14,-3.07 3.85,-1.47 6.55,-3.65 8.19,-6.51 1.84,-3.11 3.11,-7.83 3.85,-14.1 0.7,-6.31 1.07,-17.98 1.07,-35.11l0 -7.29 0 -34.66c0,-9.63 -0.04,-19.54 -0.17,-29.74 -0.12,-10.2 -0.33,-21.06 -0.57,-32.49l-16.47 0c-15.12,0 -25.81,2.42 -32.04,7.21 -6.23,4.83 -10.08,13.48 -11.51,25.98l-7.83 0c0.33,-4.79 0.98,-9.83 1.97,-15.03 1.02,-5.2 2.33,-10.53 3.93,-15.98 -0.66,-2.99 -1.15,-6.02 -1.52,-9.14 -0.37,-3.15 -0.57,-6.55 -0.66,-10.24l7.09 -0.24c0,1.76 0.24,2.66 0.69,2.66 0,1.85 1.31,3.16 3.94,3.85 2.58,0.74 7.7,1.11 15.28,1.11 1.85,0 5.41,-0.04 10.7,-0.12 5.28,-0.08 9.67,-0.13 13.19,-0.13l30.77 0 30.73 0 20.45 0c9.34,0 15.49,-0.49 18.52,-1.43 2.99,-0.98 4.46,-2.7 4.46,-5.2l0 0.74 0 -1.23 7.09 0c-0.08,4.35 -0.29,7.99 -0.61,11.02 -0.29,2.99 -0.74,5.78 -1.31,8.36 1.76,6.39 3.11,12.09 4.02,17 0.94,4.92 1.56,9.59 1.89,14.01l-8.07 0c-1.35,-11.63 -4.88,-19.75 -10.61,-24.42 -5.69,-4.63 -16.67,-7.58 -32.94,-8.77l-16.22 0c-0.25,11.06 -0.45,21.71 -0.57,31.96 -0.12,10.24 -0.17,20.32 -0.17,30.28l0 47.86c0,14.79 0.33,24.95 1.02,30.52 0.7,5.57 1.93,9.83 3.69,12.79 1.6,2.87 4.3,5.04 8.15,6.51 3.85,1.48 9.26,2.5 16.14,3.07l0 6.15c-6.72,-0.08 -13.85,-0.57 -21.39,-1.52 -7.54,-0.9 -15.61,-2.21 -24.25,-3.89 -8.77,1.68 -16.92,2.99 -24.54,3.89 -7.62,0.94 -14.79,1.43 -21.51,1.52zm275.29 -89.48c3.77,0.49 7,0.82 9.67,1.03 2.7,0.2 5.12,0.33 7.29,0.33 11.43,0 20.4,-3.4 26.88,-10.2 6.51,-6.8 9.75,-16.18 9.75,-28.14 0,-13.93 -3.56,-24.71 -10.69,-32.37 -7.13,-7.66 -17.17,-11.52 -30.16,-11.52 -2.09,0 -5.69,0.29 -10.81,0.86 -0.57,0 -1.07,0 -1.43,0.08l0 1.43c-0.33,16.39 -0.49,28.51 -0.49,36.34l0 42.16zm55.8 -0.49c15.86,32.16 29.05,54.17 39.54,66.05 10.49,11.84 21.3,17.78 32.53,17.78l1.68 0 0 6.15c-3.28,0.49 -6.02,0.82 -8.24,0.98 -2.17,0.16 -4.3,0.24 -6.27,0.24 -11.55,0 -20.85,-1.02 -27.94,-3.07 -7.05,-2.05 -13.32,-5.41 -18.77,-10.16 -8.4,-7.38 -17.53,-20.98 -27.37,-40.85 -3.61,-7.29 -6.35,-12.62 -8.28,-15.98 -3.85,-7.05 -11.84,-10.74 -24.05,-11.06 -3.61,-0.08 -6.48,-0.17 -8.65,-0.25l0 24.25c0,21.47 1.68,34.99 5.08,40.57 3.36,5.57 9.79,8.6 19.26,9.18l0 6.15c-5.86,-0.24 -12.13,-0.78 -18.89,-1.56 -6.72,-0.82 -14.01,-1.93 -21.88,-3.36 -9.59,1.6 -17.53,2.74 -23.8,3.48 -6.23,0.7 -12.01,1.19 -17.29,1.43l-0.12 -6.15c9.54,-0.57 16.02,-3.52 19.38,-8.89 3.4,-5.37 5.08,-18.24 5.08,-38.56l0 -18.76 0 -51.17c0,-21.39 -1.76,-34.87 -5.29,-40.52 -3.52,-5.61 -10.28,-8.68 -20.28,-9.26l0.12 -5.9c6.06,0.25 12.21,0.7 18.4,1.44 6.23,0.74 12.58,1.72 19.13,2.99 7.7,-1.68 15.32,-2.91 22.94,-3.73 7.62,-0.78 15.37,-1.19 23.31,-1.19 21.43,0 37.7,3.89 48.75,11.68 11.02,7.78 16.55,19.26 16.55,34.46 0,10.12 -3.03,19.05 -9.09,26.72 -6.07,7.66 -14.59,13.31 -25.57,16.88zm147.5 -89.24c5.98,0.33 12.33,0.9 18.97,1.72 6.64,0.86 13.64,1.93 21.1,3.2 7.91,-1.27 15.07,-2.33 21.47,-3.2 6.39,-0.82 12.25,-1.39 17.62,-1.72l-0.12 6.15c-8.85,0.41 -14.87,3.61 -18.03,9.67 -3.16,6.02 -4.71,21.38 -4.71,46.13l0 7.66c0,21.92 0.65,38.02 1.93,48.23 1.27,10.24 3.44,18.44 6.47,24.5 4.1,8.15 9.88,14.38 17.33,18.64 7.5,4.3 16.35,6.43 26.59,6.43 19.71,0 33.72,-6.43 42.08,-19.34 8.36,-12.86 12.54,-35.56 12.54,-68.13l0 -26.88c0,-19.5 -1.68,-32 -5.08,-37.49 -3.4,-5.49 -10.16,-8.65 -20.24,-9.42l0 -6.02c4.88,0.16 9.96,0.57 15.2,1.27 5.2,0.66 10.94,1.6 17.21,2.79 5.04,-1.02 10.08,-1.89 15.16,-2.58 5.04,-0.65 10.24,-1.19 15.61,-1.6l0 6.15c-9.05,0.41 -15.16,2.99 -18.23,7.79 -3.07,4.83 -4.63,16.72 -4.63,35.77l0 14.51 0 21.14c0,34.21 -6.27,58.92 -18.81,74.08 -12.5,15.16 -32.65,22.74 -60.43,22.74 -15.2,0 -28.19,-2.37 -38.88,-7.13 -10.74,-4.75 -19.05,-11.84 -24.99,-21.18 -4.3,-6.89 -7.41,-15.04 -9.26,-24.42 -1.84,-9.38 -2.74,-22.21 -2.74,-38.47l0 -38.84c0,-19.99 -1.6,-32.53 -4.83,-37.61 -3.24,-5.08 -9.34,-7.87 -18.27,-8.36l0 -6.15zm298.36 177.24c0.65,-3.6 1.39,-6.96 2.33,-10.2 0.9,-3.2 1.97,-6.27 3.16,-9.22 -1.07,-5.94 -1.8,-11.22 -2.3,-15.9 -0.45,-4.67 -0.7,-9.14 -0.7,-13.4 0,-0.61 0.04,-1.64 0.12,-3.03 0.08,-1.39 0.12,-2.42 0.12,-3.07l8.61 0c0.82,15.77 5.41,28.15 13.81,37.16 8.4,8.97 19.5,13.48 33.35,13.48 10.9,0 19.58,-2.87 26.1,-8.56 6.52,-5.74 9.79,-13.36 9.79,-22.87 0,-8.44 -2.62,-15.4 -7.91,-21.01 -5.29,-5.61 -16.1,-11.8 -32.45,-18.6 -19.42,-8.24 -32.7,-16.31 -39.86,-24.18 -7.17,-7.87 -10.74,-17.7 -10.74,-29.46 0,-15.2 5.57,-27.49 16.76,-36.96 11.15,-9.42 25.89,-14.14 44.21,-14.14 6.48,0 13.77,0.78 21.88,2.34 8.15,1.56 13.03,2.33 14.71,2.33 1.52,0 2.83,-0.33 3.89,-0.98 1.11,-0.61 1.84,-1.52 2.25,-2.62l7.91 0.49c-0.66,2.7 -1.39,5.41 -2.3,8.15 -0.86,2.7 -1.84,5.29 -2.87,7.78 0.66,4.06 1.11,7.99 1.44,11.8 0.33,3.81 0.49,7.46 0.49,10.98 0,0.86 -0.04,2.13 -0.13,3.77 -0.08,1.64 -0.12,2.83 -0.12,3.65l-8.28 0c-0.82,-12.17 -4.63,-21.68 -11.43,-28.52 -6.8,-6.88 -15.77,-10.33 -27,-10.33 -9.92,0 -17.9,2.62 -23.89,7.91 -6.02,5.29 -9.01,12.25 -9.01,20.9 0,13.97 14.83,27.33 44.53,40.07l1.23 0.45c17.41,7.54 29.7,15.32 36.79,23.35 7.09,8.03 10.61,17.94 10.61,29.7 0,15.65 -6.15,28.48 -18.48,38.43 -12.33,9.96 -28.43,14.96 -48.39,14.96 -8.93,0 -18.31,-1.52 -28.07,-4.55 -9.75,-3.03 -15.24,-4.55 -16.43,-4.55 -1.68,0 -3.03,0.37 -4.1,1.15 -1.02,0.74 -1.89,2.01 -2.5,3.77l-7.17 -0.49zm256.32 1.97l0 -6.15c6.88,-0.57 12.29,-1.6 16.14,-3.07 3.85,-1.47 6.55,-3.65 8.19,-6.51 1.84,-3.11 3.11,-7.83 3.85,-14.1 0.7,-6.31 1.07,-17.98 1.07,-35.11l0 -7.29 0 -34.66c0,-9.63 -0.04,-19.54 -0.17,-29.74 -0.12,-10.2 -0.33,-21.06 -0.57,-32.49l-16.47 0c-15.12,0 -25.81,2.42 -32.04,7.21 -6.23,4.83 -10.08,13.48 -11.51,25.98l-7.83 0c0.33,-4.79 0.98,-9.83 1.97,-15.03 1.02,-5.2 2.33,-10.53 3.93,-15.98 -0.66,-2.99 -1.15,-6.02 -1.52,-9.14 -0.37,-3.15 -0.57,-6.55 -0.66,-10.24l7.09 -0.24c0,1.76 0.24,2.66 0.69,2.66 0,1.85 1.31,3.16 3.94,3.85 2.58,0.74 7.7,1.11 15.28,1.11 1.85,0 5.41,-0.04 10.7,-0.12 5.28,-0.08 9.67,-0.13 13.19,-0.13l30.77 0 30.73 0 20.45 0c9.34,0 15.49,-0.49 18.52,-1.43 2.99,-0.98 4.46,-2.7 4.46,-5.2l0 0.74 0 -1.23 7.09 0c-0.08,4.35 -0.29,7.99 -0.61,11.02 -0.29,2.99 -0.74,5.78 -1.31,8.36 1.76,6.39 3.11,12.09 4.02,17 0.94,4.92 1.56,9.59 1.89,14.01l-8.07 0c-1.35,-11.63 -4.88,-19.75 -10.61,-24.42 -5.69,-4.63 -16.67,-7.58 -32.94,-8.77l-16.22 0c-0.25,11.06 -0.45,21.71 -0.57,31.96 -0.12,10.24 -0.17,20.32 -0.17,30.28l0 47.86c0,14.79 0.33,24.95 1.02,30.52 0.7,5.57 1.93,9.83 3.69,12.79 1.6,2.87 4.3,5.04 8.15,6.51 3.85,1.48 9.26,2.5 16.14,3.07l0 6.15c-6.72,-0.08 -13.85,-0.57 -21.39,-1.52 -7.54,-0.9 -15.61,-2.21 -24.25,-3.89 -8.77,1.68 -16.92,2.99 -24.54,3.89 -7.62,0.94 -14.79,1.43 -21.51,1.52zm217.27 -179.21c6.27,0.41 12.5,1.03 18.76,1.85 6.27,0.86 12.62,1.96 19.14,3.32 8.93,-1.68 19.13,-2.95 30.52,-3.85 11.43,-0.86 24.01,-1.31 37.78,-1.31l8.89 0c7.09,0 11.59,0.41 13.52,1.27 1.93,0.82 2.87,2.42 2.87,4.83 0,0.86 -0.29,1.97 -0.9,3.24 -0.57,1.27 -1.52,2.83 -2.79,4.67 0.86,5.65 1.48,10.12 1.76,13.31 0.33,3.2 0.49,6.15 0.49,8.77 0,0.49 -0.04,1.23 -0.12,2.26 -0.08,0.98 -0.13,1.72 -0.13,2.21l-7.37 0c-0.66,-10.41 -3.52,-17.58 -8.65,-21.47 -5.12,-3.89 -14.79,-5.82 -28.97,-5.82l-26.06 0c-0.24,6.48 -0.45,12.99 -0.57,19.55 -0.12,6.51 -0.16,13.11 -0.16,19.79l0 28.03 24.38 0c11.88,0 19.83,-1.19 23.88,-3.56 4.02,-2.42 6.39,-6.8 7.13,-13.15l7.79 0.12c-0.25,3.28 -0.7,6.76 -1.39,10.49 -0.66,3.69 -1.6,7.7 -2.79,12.01 1.11,4.83 2.01,9.13 2.62,12.94 0.66,3.81 1.07,7.38 1.31,10.65l-7.78 0.12c-0.61,-6.84 -2.83,-11.43 -6.55,-13.76 -3.73,-2.38 -12.13,-3.57 -25.28,-3.57l-23.31 0 0 37.53c0,17 1.84,27.12 5.57,30.36 3.73,3.24 12.46,4.88 26.14,4.88 15.61,0 27.25,-2.7 34.99,-8.11 7.74,-5.41 12.46,-14.18 14.22,-26.31l8.32 0c-0.57,6.8 -1.52,12.79 -2.83,17.95 -1.31,5.12 -3.07,9.79 -5.24,14.05 0.82,1.43 1.43,2.78 1.8,4.01 0.41,1.23 0.61,2.42 0.61,3.52 0,3.28 -1.68,5.49 -5.08,6.68 -3.4,1.15 -11.64,1.72 -24.66,1.72l-11.31 0c-13.85,0 -25.73,-0.45 -35.64,-1.31 -9.91,-0.9 -18.76,-2.25 -26.55,-4.1 -7.46,1.6 -14.34,2.83 -20.69,3.73 -6.31,0.86 -12.21,1.44 -17.66,1.68l0 -6.15c9.63,-0.66 16.14,-3.73 19.5,-9.3 3.4,-5.57 5.08,-20.07 5.08,-43.59l0 -4.34 0 -8.85 0 -34.7c0,-3.61 -0.04,-7.29 -0.12,-11.02 -0.08,-3.77 -0.12,-5.74 -0.12,-5.9 0,-20.81 -1.72,-34.01 -5.12,-39.66 -3.4,-5.65 -9.83,-8.81 -19.22,-9.55l0 -6.15zm277.01 174.3c-7.5,1.27 -14.63,2.33 -21.35,3.2 -6.72,0.82 -13.11,1.39 -19.17,1.72l0 -6.15c9.5,-0.57 15.94,-3.52 19.3,-8.93 3.36,-5.41 5.04,-18.35 5.04,-38.88l0 -18.36 0 -53.43c0,-20.2 -1.68,-33.02 -5.04,-38.47 -3.36,-5.41 -9.79,-8.44 -19.3,-9.09l0.12 -5.9c5.9,0.25 12.17,0.78 18.77,1.56 6.59,0.82 13.81,1.93 21.63,3.36 9.22,-1.93 17.98,-3.36 26.42,-4.26 8.4,-0.94 16.39,-1.39 24.01,-1.39 33.43,0 59.74,8.11 78.91,24.38 19.17,16.23 28.76,38.47 28.76,66.62 0,27.86 -9.47,49.9 -28.44,66.13 -18.97,16.18 -44.99,24.3 -78.05,24.3 -7.37,0 -14.87,-0.45 -22.45,-1.31 -7.62,-0.9 -17.33,-2.58 -29.17,-5.08zm17.5 -66.91c0,21.43 0.16,35.23 0.49,41.38 0.33,6.19 0.86,10.29 1.68,12.37 1.43,3.77 4.47,6.48 9.05,8.15 4.59,1.68 11.35,2.54 20.2,2.54 22.09,0 39.33,-6.89 51.75,-20.65 12.42,-13.76 18.6,-32.98 18.6,-57.6 0,-27.29 -6.76,-48.35 -20.28,-63.22 -13.52,-14.83 -32.78,-22.25 -57.73,-22.25 -4.55,0 -8.61,0.17 -12.17,0.49 -3.57,0.33 -6.89,0.78 -9.92,1.43 -0.57,7.05 -0.98,15.61 -1.27,25.73 -0.29,10.12 -0.41,22.12 -0.41,35.97l0 35.64zm496.69 59.57c-11.35,4.92 -23.44,8.73 -36.22,11.31 -12.74,2.58 -25.65,3.89 -38.72,3.89 -32.98,0 -59,-8.19 -78.09,-24.58 -19.09,-16.39 -28.64,-38.6 -28.64,-66.58 0,-28.15 9.55,-50.84 28.68,-68.1 19.14,-17.25 44.42,-25.85 75.76,-25.85 10.9,0 22.21,1.07 33.93,3.24 11.72,2.13 17.99,3.24 18.81,3.24 1.76,0 3.2,-0.28 4.3,-0.86 1.11,-0.53 2.05,-1.43 2.74,-2.62l6.15 2.17c-1.02,3.81 -1.97,7.17 -2.83,10 -0.82,2.83 -1.68,5.41 -2.58,7.74 0.74,5.61 1.23,10.78 1.56,15.57 0.33,4.76 0.49,9.26 0.49,13.48l0 3.85 -8.89 0c-1.11,-15.12 -6.06,-26.75 -14.83,-34.83 -8.77,-8.07 -20.86,-12.13 -36.34,-12.13 -20.73,0 -37.12,7.29 -49.21,21.84 -12.09,14.55 -18.15,34.5 -18.15,59.78 0,25.81 6.8,46.51 20.36,62.03 13.56,15.53 31.47,23.27 53.63,23.27 10.16,0 17.17,-1.15 21.02,-3.48 3.85,-2.3 5.78,-8.28 5.78,-17.87l0 -18.72c0,-10.69 -1.76,-18.03 -5.29,-22 -3.52,-3.97 -10.2,-6.39 -20.03,-7.25l0.12 -6.15c7.74,0.41 15.16,1.02 22.25,1.93 7.09,0.86 13.89,2.05 20.45,3.48 5.28,-1.27 10.78,-2.38 16.55,-3.32 5.74,-0.9 11.76,-1.6 18.07,-2.09l0 6.15c-7.01,1.44 -11.84,4.34 -14.5,8.69 -2.62,4.38 -3.93,12.37 -3.93,24.05l0 15.73c0,3.11 0.53,5.29 1.64,6.52 1.06,1.23 3.07,1.96 5.98,2.21l0 6.27zm98.58 -166.96c6.15,0.33 12.62,0.9 19.42,1.8 6.8,0.9 14.26,2.09 22.41,3.61 7.38,-1.43 14.55,-2.62 21.47,-3.48 6.96,-0.9 13.72,-1.52 20.28,-1.93l0.13 6.15c-9.88,0.66 -16.59,3.89 -20.16,9.71 -3.52,5.86 -5.28,18.52 -5.28,38.02 0,1.15 0.08,3.07 0.24,5.78 0.17,2.7 0.24,4.8 0.24,6.23 0,0.66 -0.04,1.44 -0.12,2.34 -0.08,0.94 -0.2,2.25 -0.37,4.01l0 58.18c0,15.73 1.68,25.44 5.04,29.17 3.36,3.73 10.28,5.61 20.77,5.61 20.37,0 34.09,-2.05 41.22,-6.19 7.13,-4.14 11.68,-11.76 13.68,-22.82l8.03 0c-0.74,4.76 -1.72,9.42 -2.99,14.02 -1.27,4.63 -2.79,9.09 -4.55,13.44 0.78,1.76 1.39,3.24 1.8,4.42 0.37,1.19 0.57,2.21 0.57,2.99 0,3.2 -1.93,5.37 -5.74,6.47 -3.85,1.11 -12.94,1.68 -27.33,1.68l-8.65 0c-12.74,0 -24.17,-0.45 -34.25,-1.31 -10.08,-0.9 -19.26,-2.25 -27.53,-4.1 -7.42,1.6 -14.3,2.83 -20.61,3.73 -6.31,0.86 -12.17,1.44 -17.62,1.68l0 -6.15c9.59,-0.66 16.06,-3.73 19.42,-9.3 3.36,-5.57 5.04,-20.12 5.04,-43.63l0 -4.35 0 -8.85 0 -34.7c0,-3.56 -0.04,-7.25 -0.13,-11.02 -0.08,-3.77 -0.12,-5.74 -0.12,-5.9 0,-20.77 -1.68,-34.01 -5.08,-39.62 -3.4,-5.65 -9.79,-8.81 -19.13,-9.55l-0.13 -6.15zm325.85 173.56c17.13,0 30.85,-7.62 41.14,-22.82 10.29,-15.2 15.4,-35.64 15.4,-61.29 0,-25.61 -5.12,-45.97 -15.4,-61.09 -10.28,-15.12 -24.01,-22.7 -41.14,-22.7 -17.13,0 -30.77,7.58 -40.97,22.7 -10.2,15.12 -15.32,35.48 -15.32,61.09 0,25.73 5.12,46.21 15.32,61.38 10.2,15.16 23.85,22.74 40.97,22.74zm96.12 -84.11c0,26.71 -9.05,48.84 -27.21,66.37 -18.11,17.58 -41.09,26.35 -68.83,26.35 -27.78,0 -50.72,-8.77 -68.83,-26.35 -18.07,-17.53 -27.12,-39.66 -27.12,-66.37 0,-26.63 9.05,-48.72 27.12,-66.17 18.11,-17.5 41.05,-26.22 68.83,-26.22 27.74,0 50.72,8.77 68.83,26.26 18.15,17.53 27.21,39.58 27.21,66.13zm149.63 -1.93l0 35.89c0,21.88 1.76,35.24 5.24,40.11 3.48,4.87 10.16,7.33 20.07,7.33 11.31,0 20.24,-3.57 26.8,-10.69 6.55,-7.13 9.83,-16.8 9.83,-29.05 0,-14.75 -4.39,-25.73 -13.15,-32.98 -8.77,-7.25 -22,-10.86 -39.79,-10.86 -1.27,0 -2.66,0 -4.22,0.04 -1.52,0.04 -3.11,0.13 -4.79,0.2zm0.24 -9.09c1.43,0.08 2.99,0.17 4.63,0.2 1.64,0.04 4.02,0.04 7.13,0.04 13.27,0 23.07,-2.87 29.42,-8.65 6.31,-5.74 9.47,-14.66 9.47,-26.75 0,-10.81 -3.36,-19.46 -10.04,-25.93 -6.68,-6.48 -15.74,-9.71 -27.16,-9.71 -2.79,0 -5.12,0.08 -7.01,0.29 -1.89,0.2 -3.81,0.53 -5.7,1.02 -0.24,2.74 -0.45,5.7 -0.57,8.93 -0.12,3.28 -0.17,8.19 -0.17,14.83l0 12.13 0 33.6zm-33.43 28.56l0 -51.34c0,-20.89 -1.68,-34.21 -5.04,-39.95 -3.36,-5.74 -9.79,-8.97 -19.3,-9.79l0.12 -5.9c4.96,0.25 10.41,0.74 16.35,1.44 5.98,0.74 13.31,1.88 22.12,3.48 8.81,-2.09 17.21,-3.65 25.16,-4.63 7.99,-1.02 15.65,-1.52 22.98,-1.52 18.19,0 32.16,3.52 41.92,10.53 9.79,7 14.67,16.92 14.67,29.83 0,10.33 -3.57,19.09 -10.7,26.31 -7.17,7.21 -17.29,12.21 -30.44,15.03l0 1.68c17.86,1.6 31.51,6.43 40.97,14.55 9.46,8.15 14.18,19.09 14.18,32.86 0,15.98 -6.06,28.44 -18.23,37.33 -12.17,8.89 -29.25,13.32 -51.3,13.32 -7.83,0 -15.77,-0.49 -23.81,-1.43 -8.07,-0.98 -16.18,-2.46 -24.46,-4.47 -9.18,1.6 -16.8,2.74 -22.82,3.48 -6.02,0.7 -11.55,1.19 -16.59,1.43l-0.12 -6.15c9.5,-0.57 15.94,-3.52 19.3,-8.93 3.36,-5.41 5.04,-18.31 5.04,-38.8l0 -18.35zm305.53 -74.78c-4.76,11.11 -9.39,22.37 -13.93,33.81 -4.51,11.43 -8.97,22.94 -13.31,34.54 5.94,0.08 11.55,0.17 16.8,0.2 5.28,0.04 10.12,0.04 14.54,0.04 5.61,0 9.88,0 12.83,-0.04 2.91,-0.04 5.7,-0.12 8.36,-0.2 -4.51,-12.87 -8.85,-24.87 -12.99,-35.97 -4.18,-11.1 -8.28,-21.92 -12.29,-32.37zm0 -35.15l19.13 0 34.74 89.24c2.05,5.37 4.96,12.83 8.65,22.45 16.23,42.9 30.32,64.33 42.24,64.33l0.25 0 0 6.15c-7.46,-0.49 -19.3,-1.89 -35.53,-4.18l-3.48 -0.49c-8.11,1.27 -15.24,2.29 -21.43,3.07 -6.23,0.74 -11.96,1.27 -17.25,1.6l0 -6.15c5.86,-0.41 10.16,-1.52 12.99,-3.32 2.79,-1.8 4.18,-4.39 4.18,-7.74 0,-2.46 -0.9,-6.89 -2.7,-13.24 -1.8,-6.39 -4.42,-14.46 -7.87,-24.21l-4.92 -13.68c-4.96,-0.08 -9.79,-0.17 -14.46,-0.2 -4.63,-0.04 -9.5,-0.04 -14.54,-0.04 -6.52,0 -12.17,0 -16.92,0.04 -4.79,0.04 -9.59,0.12 -14.38,0.2l-4.67 11.76c-3.61,9.14 -6.47,17.29 -8.65,24.5 -2.13,7.21 -3.2,12.17 -3.2,14.87 0,3.77 1.19,6.52 3.57,8.19 2.42,1.68 6.43,2.62 12.09,2.87l0 6.15c-4.46,-0.24 -9.18,-0.74 -14.14,-1.52 -4.96,-0.74 -10.44,-1.8 -16.55,-3.15 -5.98,1.35 -11.55,2.42 -16.68,3.15 -5.16,0.78 -9.96,1.27 -14.34,1.52l-0.12 -6.15 1.07 0c13.6,0 29.5,-22.41 47.69,-67.24 3.52,-8.64 6.23,-15.32 8.15,-20.03l37.08 -88.74zm179.74 2.95c6.15,0.33 12.62,0.9 19.42,1.8 6.8,0.9 14.26,2.09 22.41,3.61 7.38,-1.43 14.55,-2.62 21.47,-3.48 6.96,-0.9 13.72,-1.52 20.28,-1.93l0.13 6.15c-9.88,0.66 -16.59,3.89 -20.16,9.71 -3.52,5.86 -5.28,18.52 -5.28,38.02 0,1.15 0.08,3.07 0.24,5.78 0.17,2.7 0.24,4.8 0.24,6.23 0,0.66 -0.04,1.44 -0.12,2.34 -0.08,0.94 -0.2,2.25 -0.37,4.01l0 58.18c0,15.73 1.68,25.44 5.04,29.17 3.36,3.73 10.28,5.61 20.77,5.61 20.37,0 34.09,-2.05 41.22,-6.19 7.13,-4.14 11.68,-11.76 13.68,-22.82l8.03 0c-0.74,4.76 -1.72,9.42 -2.99,14.02 -1.27,4.63 -2.79,9.09 -4.55,13.44 0.78,1.76 1.39,3.24 1.8,4.42 0.37,1.19 0.57,2.21 0.57,2.99 0,3.2 -1.93,5.37 -5.74,6.47 -3.85,1.11 -12.94,1.68 -27.33,1.68l-8.65 0c-12.74,0 -24.17,-0.45 -34.25,-1.31 -10.08,-0.9 -19.26,-2.25 -27.53,-4.1 -7.42,1.6 -14.3,2.83 -20.61,3.73 -6.31,0.86 -12.17,1.44 -17.62,1.68l0 -6.15c9.59,-0.66 16.06,-3.73 19.42,-9.3 3.36,-5.57 5.04,-20.12 5.04,-43.63l0 -4.35 0 -8.85 0 -34.7c0,-3.56 -0.04,-7.25 -0.13,-11.02 -0.08,-3.77 -0.12,-5.74 -0.12,-5.9 0,-20.77 -1.68,-34.01 -5.08,-39.62 -3.4,-5.65 -9.79,-8.81 -19.13,-9.55l-0.13 -6.15zm368.7 89.73c3.77,0.49 7,0.82 9.67,1.03 2.7,0.2 5.12,0.33 7.29,0.33 11.43,0 20.4,-3.4 26.88,-10.2 6.51,-6.8 9.75,-16.18 9.75,-28.14 0,-13.93 -3.56,-24.71 -10.69,-32.37 -7.13,-7.66 -17.17,-11.52 -30.16,-11.52 -2.09,0 -5.69,0.29 -10.81,0.86 -0.57,0 -1.07,0 -1.43,0.08l0 1.43c-0.33,16.39 -0.49,28.51 -0.49,36.34l0 42.16zm55.8 -0.49c15.86,32.16 29.05,54.17 39.54,66.05 10.49,11.84 21.3,17.78 32.53,17.78l1.68 0 0 6.15c-3.28,0.49 -6.02,0.82 -8.24,0.98 -2.17,0.16 -4.3,0.24 -6.27,0.24 -11.55,0 -20.85,-1.02 -27.94,-3.07 -7.05,-2.05 -13.32,-5.41 -18.77,-10.16 -8.4,-7.38 -17.53,-20.98 -27.37,-40.85 -3.61,-7.29 -6.35,-12.62 -8.28,-15.98 -3.85,-7.05 -11.84,-10.74 -24.05,-11.06 -3.61,-0.08 -6.48,-0.17 -8.65,-0.25l0 24.25c0,21.47 1.68,34.99 5.08,40.57 3.36,5.57 9.79,8.6 19.26,9.18l0 6.15c-5.86,-0.24 -12.13,-0.78 -18.89,-1.56 -6.72,-0.82 -14.01,-1.93 -21.88,-3.36 -9.59,1.6 -17.53,2.74 -23.8,3.48 -6.23,0.7 -12.01,1.19 -17.29,1.43l-0.12 -6.15c9.54,-0.57 16.02,-3.52 19.38,-8.89 3.4,-5.37 5.08,-18.24 5.08,-38.56l0 -18.76 0 -51.17c0,-21.39 -1.76,-34.87 -5.29,-40.52 -3.52,-5.61 -10.28,-8.68 -20.28,-9.26l0.12 -5.9c6.06,0.25 12.21,0.7 18.4,1.44 6.23,0.74 12.58,1.72 19.13,2.99 7.7,-1.68 15.32,-2.91 22.94,-3.73 7.62,-0.78 15.37,-1.19 23.31,-1.19 21.43,0 37.7,3.89 48.75,11.68 11.02,7.78 16.55,19.26 16.55,34.46 0,10.12 -3.03,19.05 -9.09,26.72 -6.07,7.66 -14.59,13.31 -25.57,16.88z"/>
     <path class="fil21" d="M6029.52 1779.73c6.27,0.41 12.5,1.03 18.76,1.85 6.27,0.86 12.62,1.96 19.14,3.32 8.93,-1.68 19.13,-2.95 30.52,-3.85 11.43,-0.86 24.01,-1.31 37.78,-1.31l8.89 0c7.09,0 11.59,0.41 13.52,1.27 1.93,0.82 2.87,2.42 2.87,4.83 0,0.86 -0.29,1.97 -0.9,3.24 -0.57,1.27 -1.52,2.83 -2.79,4.67 0.86,5.65 1.48,10.12 1.76,13.31 0.33,3.2 0.49,6.15 0.49,8.77 0,0.49 -0.04,1.23 -0.12,2.26 -0.08,0.98 -0.13,1.72 -0.13,2.21l-7.37 0c-0.66,-10.41 -3.52,-17.58 -8.65,-21.47 -5.12,-3.89 -14.79,-5.82 -28.97,-5.82l-26.06 0c-0.24,6.48 -0.45,12.99 -0.57,19.55 -0.12,6.51 -0.16,13.11 -0.16,19.79l0 28.03 24.38 0c11.88,0 19.83,-1.19 23.88,-3.56 4.02,-2.42 6.39,-6.8 7.13,-13.15l7.79 0.12c-0.25,3.28 -0.7,6.76 -1.39,10.49 -0.66,3.69 -1.6,7.7 -2.79,12.01 1.11,4.83 2.01,9.13 2.62,12.94 0.66,3.81 1.07,7.38 1.31,10.65l-7.78 0.12c-0.61,-6.84 -2.83,-11.43 -6.55,-13.76 -3.73,-2.38 -12.13,-3.57 -25.28,-3.57l-23.31 0 0 37.53c0,17 1.84,27.12 5.57,30.36 3.73,3.24 12.46,4.88 26.14,4.88 15.61,0 27.25,-2.7 34.99,-8.11 7.74,-5.41 12.46,-14.18 14.22,-26.31l8.32 0c-0.57,6.8 -1.52,12.79 -2.83,17.95 -1.31,5.12 -3.07,9.79 -5.24,14.05 0.82,1.43 1.43,2.78 1.8,4.01 0.41,1.23 0.61,2.42 0.61,3.52 0,3.28 -1.68,5.49 -5.08,6.68 -3.4,1.15 -11.64,1.72 -24.66,1.72l-11.31 0c-13.85,0 -25.73,-0.45 -35.64,-1.31 -9.91,-0.9 -18.76,-2.25 -26.55,-4.1 -7.46,1.6 -14.34,2.83 -20.69,3.73 -6.31,0.86 -12.21,1.44 -17.66,1.68l0 -6.15c9.63,-0.66 16.14,-3.73 19.5,-9.3 3.4,-5.57 5.08,-20.07 5.08,-43.59l0 -4.34 0 -8.85 0 -34.7c0,-3.61 -0.04,-7.29 -0.12,-11.02 -0.08,-3.77 -0.12,-5.74 -0.12,-5.9 0,-20.81 -1.72,-34.01 -5.12,-39.66 -3.4,-5.65 -9.83,-8.81 -19.22,-9.55l0 -6.15zm403.37 0.04l6.18 2.13c-1.06,3.85 -2.01,7.21 -2.87,10.04 -0.86,2.83 -1.72,5.41 -2.62,7.74 0.74,5.98 1.23,11.72 1.56,17.13 0.33,5.37 0.49,10.65 0.49,15.77l-8.89 0c-1.11,-14.96 -6.15,-26.59 -15.12,-34.83 -8.93,-8.24 -21.1,-12.37 -36.46,-12.37 -20.32,0 -36.42,7.46 -48.3,22.37 -11.88,14.91 -17.83,35.15 -17.83,60.68 0,25.28 6.35,45.52 19.09,60.76 12.7,15.24 29.34,22.87 49.9,22.87 15.04,0 27.09,-3.4 36.06,-10.2 9.01,-6.8 14.38,-16.51 16.14,-29.13l9.1 0c-0.49,4.14 -1.11,8.36 -1.85,12.58 -0.74,4.26 -1.59,8.52 -2.58,12.82 0.57,2.91 0.98,5.08 1.23,6.55 0.24,1.48 0.41,2.87 0.49,4.14 -7.99,4.14 -17.37,7.38 -28.07,9.67 -10.74,2.25 -22.09,3.4 -34.09,3.4 -32.49,0 -58.3,-8.24 -77.35,-24.66 -19.09,-16.43 -28.64,-38.51 -28.64,-66.25 0,-28.35 9.55,-51.09 28.68,-68.34 19.14,-17.25 44.54,-25.85 76.21,-25.85 11.02,0 22.37,1.07 33.97,3.24 11.59,2.13 17.74,3.2 18.48,3.2 1.76,0 3.2,-0.24 4.3,-0.82 1.15,-0.53 2.05,-1.43 2.79,-2.62zm157.87 89.68c3.77,0.49 7,0.82 9.67,1.03 2.7,0.2 5.12,0.33 7.29,0.33 11.43,0 20.4,-3.4 26.88,-10.2 6.51,-6.8 9.75,-16.18 9.75,-28.14 0,-13.93 -3.56,-24.71 -10.69,-32.37 -7.13,-7.66 -17.17,-11.52 -30.16,-11.52 -2.09,0 -5.69,0.29 -10.81,0.86 -0.57,0 -1.07,0 -1.43,0.08l0 1.43c-0.33,16.39 -0.49,28.51 -0.49,36.34l0 42.16zm55.8 -0.49c15.86,32.16 29.05,54.17 39.54,66.05 10.49,11.84 21.3,17.78 32.53,17.78l1.68 0 0 6.15c-3.28,0.49 -6.02,0.82 -8.24,0.98 -2.17,0.16 -4.3,0.24 -6.27,0.24 -11.55,0 -20.85,-1.02 -27.94,-3.07 -7.05,-2.05 -13.32,-5.41 -18.77,-10.16 -8.4,-7.38 -17.53,-20.98 -27.37,-40.85 -3.61,-7.29 -6.35,-12.62 -8.28,-15.98 -3.85,-7.05 -11.84,-10.74 -24.05,-11.06 -3.61,-0.08 -6.48,-0.17 -8.65,-0.25l0 24.25c0,21.47 1.68,34.99 5.08,40.57 3.36,5.57 9.79,8.6 19.26,9.18l0 6.15c-5.86,-0.24 -12.13,-0.78 -18.89,-1.56 -6.72,-0.82 -14.01,-1.93 -21.88,-3.36 -9.59,1.6 -17.53,2.74 -23.8,3.48 -6.23,0.7 -12.01,1.19 -17.29,1.43l-0.12 -6.15c9.54,-0.57 16.02,-3.52 19.38,-8.89 3.4,-5.37 5.08,-18.24 5.08,-38.56l0 -18.76 0 -51.17c0,-21.39 -1.76,-34.87 -5.29,-40.52 -3.52,-5.61 -10.28,-8.68 -20.28,-9.26l0.12 -5.9c6.06,0.25 12.21,0.7 18.4,1.44 6.23,0.74 12.58,1.72 19.13,2.99 7.7,-1.68 15.32,-2.91 22.94,-3.73 7.62,-0.78 15.37,-1.19 23.31,-1.19 21.43,0 37.7,3.89 48.75,11.68 11.02,7.78 16.55,19.26 16.55,34.46 0,10.12 -3.03,19.05 -9.09,26.72 -6.07,7.66 -14.59,13.31 -25.57,16.88zm147.5 -89.24c5.98,0.33 12.33,0.9 18.97,1.72 6.64,0.86 13.64,1.93 21.1,3.2 7.91,-1.27 15.07,-2.33 21.47,-3.2 6.39,-0.82 12.25,-1.39 17.62,-1.72l-0.12 6.15c-8.85,0.41 -14.87,3.61 -18.03,9.67 -3.16,6.02 -4.71,21.38 -4.71,46.13l0 7.66c0,21.92 0.65,38.02 1.93,48.23 1.27,10.24 3.44,18.44 6.47,24.5 4.1,8.15 9.88,14.38 17.33,18.64 7.5,4.3 16.35,6.43 26.59,6.43 19.71,0 33.72,-6.43 42.08,-19.34 8.36,-12.86 12.54,-35.56 12.54,-68.13l0 -26.88c0,-19.5 -1.68,-32 -5.08,-37.49 -3.4,-5.49 -10.16,-8.65 -20.24,-9.42l0 -6.02c4.88,0.16 9.96,0.57 15.2,1.27 5.2,0.66 10.94,1.6 17.21,2.79 5.04,-1.02 10.08,-1.89 15.16,-2.58 5.04,-0.65 10.24,-1.19 15.61,-1.6l0 6.15c-9.05,0.41 -15.16,2.99 -18.23,7.79 -3.07,4.83 -4.63,16.72 -4.63,35.77l0 14.51 0 21.14c0,34.21 -6.27,58.92 -18.81,74.08 -12.5,15.16 -32.65,22.74 -60.43,22.74 -15.2,0 -28.19,-2.37 -38.88,-7.13 -10.74,-4.75 -19.05,-11.84 -24.99,-21.18 -4.3,-6.89 -7.41,-15.04 -9.26,-24.42 -1.84,-9.38 -2.74,-22.21 -2.74,-38.47l0 -38.84c0,-19.99 -1.6,-32.53 -4.83,-37.61 -3.24,-5.08 -9.34,-7.87 -18.27,-8.36l0 -6.15zm290.24 0c5.78,0.33 12.09,0.9 19.01,1.72 6.92,0.86 14.38,1.93 22.29,3.2 7.91,-1.31 15.28,-2.42 22.08,-3.28 6.8,-0.86 13.11,-1.39 18.97,-1.64l0 5.9c-9.5,0.65 -15.94,3.69 -19.3,9.14 -3.36,5.41 -5.04,18.27 -5.04,38.51l0 18.72 0 51.58c0,20.81 1.68,34.05 5.08,39.66 3.4,5.65 9.83,8.81 19.26,9.55l0 6.15c-5.86,-0.33 -12.17,-0.9 -18.97,-1.72 -6.8,-0.86 -14.17,-1.93 -22.08,-3.2 -9.59,1.52 -17.62,2.67 -24.09,3.4 -6.43,0.78 -12.17,1.27 -17.21,1.52l0 -6.15c9.51,-0.66 15.94,-3.69 19.3,-9.14 3.36,-5.41 5.04,-18.31 5.04,-38.64l0 -18.36 0 -51.58c0,-20.81 -1.68,-34.05 -5.04,-39.74 -3.36,-5.66 -9.79,-8.93 -19.3,-9.71l0 -5.9zm210.19 179.21l0 -6.15c6.88,-0.57 12.29,-1.6 16.14,-3.07 3.85,-1.47 6.55,-3.65 8.19,-6.51 1.84,-3.11 3.11,-7.83 3.85,-14.1 0.7,-6.31 1.07,-17.98 1.07,-35.11l0 -7.29 0 -34.66c0,-9.63 -0.04,-19.54 -0.17,-29.74 -0.12,-10.2 -0.33,-21.06 -0.57,-32.49l-16.47 0c-15.12,0 -25.81,2.42 -32.04,7.21 -6.23,4.83 -10.08,13.48 -11.51,25.98l-7.83 0c0.33,-4.79 0.98,-9.83 1.97,-15.03 1.02,-5.2 2.33,-10.53 3.93,-15.98 -0.66,-2.99 -1.15,-6.02 -1.52,-9.14 -0.37,-3.15 -0.57,-6.55 -0.66,-10.24l7.09 -0.24c0,1.76 0.24,2.66 0.69,2.66 0,1.85 1.31,3.16 3.94,3.85 2.58,0.74 7.7,1.11 15.28,1.11 1.85,0 5.41,-0.04 10.7,-0.12 5.28,-0.08 9.67,-0.13 13.19,-0.13l30.77 0 30.73 0 20.45 0c9.34,0 15.49,-0.49 18.52,-1.43 2.99,-0.98 4.46,-2.7 4.46,-5.2l0 0.74 0 -1.23 7.09 0c-0.08,4.35 -0.29,7.99 -0.61,11.02 -0.29,2.99 -0.74,5.78 -1.31,8.36 1.76,6.39 3.11,12.09 4.02,17 0.94,4.92 1.56,9.59 1.89,14.01l-8.07 0c-1.35,-11.63 -4.88,-19.75 -10.61,-24.42 -5.69,-4.63 -16.67,-7.58 -32.94,-8.77l-16.22 0c-0.25,11.06 -0.45,21.71 -0.57,31.96 -0.12,10.24 -0.17,20.32 -0.17,30.28l0 47.86c0,14.79 0.33,24.95 1.02,30.52 0.7,5.57 1.93,9.83 3.69,12.79 1.6,2.87 4.3,5.04 8.15,6.51 3.85,1.48 9.26,2.5 16.14,3.07l0 6.15c-6.72,-0.08 -13.85,-0.57 -21.39,-1.52 -7.54,-0.9 -15.61,-2.21 -24.25,-3.89 -8.77,1.68 -16.92,2.99 -24.54,3.89 -7.62,0.94 -14.79,1.43 -21.51,1.52zm217.77 0l-0.12 -6.15c6.51,-1.02 11.18,-2.62 14.09,-4.8 2.91,-2.17 5.12,-5.82 6.76,-10.94 1.68,-5.74 3.52,-21.79 5.53,-48.1l0.37 -4.09c1.11,-14.14 1.96,-27.17 2.5,-39.05 0.57,-11.88 0.86,-22.16 0.86,-30.89 0,-12.25 -1.52,-19.91 -4.51,-23.07 -3.03,-3.11 -9.63,-5.12 -19.83,-5.98l0 -6.15c4.42,0.25 9.22,0.61 14.38,1.19 5.16,0.57 11.47,1.39 18.85,2.5 5.37,-1.43 9.14,-2.38 11.31,-2.79 2.21,-0.45 3.97,-0.65 5.37,-0.65 4.3,0 8.73,4.79 13.27,14.38 0.57,1.15 0.98,1.96 1.23,2.54 14.05,29.5 25.4,52.93 34.05,70.23 8.65,17.25 16.72,32.7 24.22,46.3 14.34,-30.15 29.42,-63.1 45.27,-98.78 4.09,-9.26 6.76,-15.28 8.03,-17.98 0.41,-0.9 1.03,-2.21 1.8,-3.98 3.61,-8.15 7.38,-12.25 11.31,-12.25 1.76,0 6.11,0.86 13.07,2.5l2.05 0.49c6.19,-1.02 11.84,-1.89 16.96,-2.5 5.12,-0.61 9.34,-1.02 12.62,-1.19l0 6.15c-7.78,0.57 -12.9,2.42 -15.32,5.53 -2.42,3.11 -3.61,12.25 -3.61,27.45 0,2.75 0.04,5.49 0.12,8.32 0.08,2.79 0.2,5.74 0.37,8.85l2.87 68.54c0.9,21.1 2.91,34.42 6.02,39.95 3.11,5.53 8.85,8.28 17.17,8.28l-0.12 6.15c-5.29,-0.24 -10.86,-0.74 -16.8,-1.52 -5.94,-0.74 -12.33,-1.8 -19.22,-3.15 -7.29,1.35 -13.93,2.42 -20,3.15 -6.06,0.78 -11.76,1.27 -17.13,1.52l0 -6.15c7.25,-0.25 12.21,-2.42 14.91,-6.47 2.66,-4.1 4.02,-12.5 4.02,-25.2 0,-1.76 -0.04,-4.75 -0.17,-8.93 -0.12,-4.22 -0.29,-9.59 -0.53,-16.14l-1.43 -44.78c-0.41,-9.51 -0.74,-16.76 -1.03,-21.72 -0.28,-4.96 -0.61,-9.59 -1.02,-13.93 -11.39,23.23 -22.41,46.75 -33.1,70.6 -10.69,23.85 -21.06,48.06 -31.06,72.73l-9.63 0c-9.92,-21.51 -20.57,-43.84 -32,-66.99 -11.43,-23.11 -23.93,-47.73 -37.53,-73.91 -1.52,24.01 -2.7,44.78 -3.6,62.4 -0.86,17.57 -1.31,30.73 -1.31,39.37 0,12.78 1.64,21.39 4.91,25.85 3.28,4.42 9.34,6.8 18.19,7.13l-0.12 6.15c-4.8,-0.24 -9.83,-0.7 -15.08,-1.39 -5.28,-0.65 -10.86,-1.6 -16.68,-2.79 -6.1,1.19 -11.8,2.13 -17.04,2.79 -5.24,0.7 -10.08,1.15 -14.5,1.39zm335.76 -179.21c6.27,0.41 12.5,1.03 18.76,1.85 6.27,0.86 12.62,1.96 19.14,3.32 8.93,-1.68 19.13,-2.95 30.52,-3.85 11.43,-0.86 24.01,-1.31 37.78,-1.31l8.89 0c7.09,0 11.59,0.41 13.52,1.27 1.93,0.82 2.87,2.42 2.87,4.83 0,0.86 -0.29,1.97 -0.9,3.24 -0.57,1.27 -1.52,2.83 -2.79,4.67 0.86,5.65 1.48,10.12 1.76,13.31 0.33,3.2 0.49,6.15 0.49,8.77 0,0.49 -0.04,1.23 -0.12,2.26 -0.08,0.98 -0.13,1.72 -0.13,2.21l-7.37 0c-0.66,-10.41 -3.52,-17.58 -8.65,-21.47 -5.12,-3.89 -14.79,-5.82 -28.97,-5.82l-26.06 0c-0.24,6.48 -0.45,12.99 -0.57,19.55 -0.12,6.51 -0.16,13.11 -0.16,19.79l0 28.03 24.38 0c11.88,0 19.83,-1.19 23.88,-3.56 4.02,-2.42 6.39,-6.8 7.13,-13.15l7.79 0.12c-0.25,3.28 -0.7,6.76 -1.39,10.49 -0.66,3.69 -1.6,7.7 -2.79,12.01 1.11,4.83 2.01,9.13 2.62,12.94 0.66,3.81 1.07,7.38 1.31,10.65l-7.78 0.12c-0.61,-6.84 -2.83,-11.43 -6.55,-13.76 -3.73,-2.38 -12.13,-3.57 -25.28,-3.57l-23.31 0 0 37.53c0,17 1.84,27.12 5.57,30.36 3.73,3.24 12.46,4.88 26.14,4.88 15.61,0 27.25,-2.7 34.99,-8.11 7.74,-5.41 12.46,-14.18 14.22,-26.31l8.32 0c-0.57,6.8 -1.52,12.79 -2.83,17.95 -1.31,5.12 -3.07,9.79 -5.24,14.05 0.82,1.43 1.43,2.78 1.8,4.01 0.41,1.23 0.61,2.42 0.61,3.52 0,3.28 -1.68,5.49 -5.08,6.68 -3.4,1.15 -11.64,1.72 -24.66,1.72l-11.31 0c-13.85,0 -25.73,-0.45 -35.64,-1.31 -9.91,-0.9 -18.76,-2.25 -26.55,-4.1 -7.46,1.6 -14.34,2.83 -20.69,3.73 -6.31,0.86 -12.21,1.44 -17.66,1.68l0 -6.15c9.63,-0.66 16.14,-3.73 19.5,-9.3 3.4,-5.57 5.08,-20.07 5.08,-43.59l0 -4.34 0 -8.85 0 -34.7c0,-3.61 -0.04,-7.29 -0.12,-11.02 -0.08,-3.77 -0.12,-5.74 -0.12,-5.9 0,-20.81 -1.72,-34.01 -5.12,-39.66 -3.4,-5.65 -9.83,-8.81 -19.22,-9.55l0 -6.15zm261.32 94.93l0 -32.49c0,-25.28 -1.8,-40.81 -5.45,-46.58 -3.65,-5.74 -10.78,-8.97 -21.35,-9.71l0 -6.15c5.94,0.49 11.31,0.98 16.1,1.56 4.8,0.53 9.39,1.19 13.68,1.89 4.55,-1.19 7.99,-2.01 10.24,-2.5 2.3,-0.45 4.1,-0.7 5.49,-0.7 4.38,0 12,6.64 22.9,19.91l2.63 3.24c14.5,17.45 29.7,35.23 45.64,53.34 15.98,18.15 32.53,36.47 49.74,55.03l0 -67.52c0,-24.75 -1.72,-40.52 -5.17,-47.4 -3.44,-6.89 -9.83,-10.45 -19.17,-10.7l0 -6.15c4.26,0.25 8.85,0.7 13.89,1.39 5,0.66 10.94,1.68 17.82,3.03 7.99,-1.47 14.18,-2.54 18.56,-3.15 4.34,-0.61 8.31,-1.02 11.92,-1.27l0 6.15 -0.94 0c-8.73,0 -14.63,5.2 -17.74,15.61 -3.11,10.41 -4.67,35.81 -4.67,76.29l0 53.18c0,4.96 0.08,10.08 0.24,15.28 0.17,5.2 0.33,10.45 0.49,15.65 -3.15,-0.9 -6.27,-1.6 -9.3,-2.05 -3.07,-0.45 -6.11,-0.66 -9.18,-0.66 -21.76,-26.63 -42.78,-51.71 -63.1,-75.18 -20.32,-23.52 -39.9,-45.36 -58.79,-65.6l0 45.6c0,22.87 0.37,40.11 1.06,51.75 0.74,11.68 1.93,19.87 3.61,24.66 1.39,3.77 3.93,6.68 7.7,8.73 3.77,2.01 8.73,3.24 14.91,3.65l0 6.15c-5.45,-0.24 -11.06,-0.74 -16.88,-1.48 -5.82,-0.78 -11.72,-1.76 -17.7,-2.95 -7.25,1.35 -13.35,2.38 -18.31,3.03 -4.96,0.7 -9.55,1.15 -13.72,1.39l-0.12 -6.15c9.79,0 16.43,-3.77 19.83,-11.35 3.4,-7.54 5.12,-27.78 5.12,-60.64l0 -6.15zm300.86 84.28l0 -6.15c6.88,-0.57 12.29,-1.6 16.14,-3.07 3.85,-1.47 6.55,-3.65 8.19,-6.51 1.84,-3.11 3.11,-7.83 3.85,-14.1 0.7,-6.31 1.07,-17.98 1.07,-35.11l0 -7.29 0 -34.66c0,-9.63 -0.04,-19.54 -0.17,-29.74 -0.12,-10.2 -0.33,-21.06 -0.57,-32.49l-16.47 0c-15.12,0 -25.81,2.42 -32.04,7.21 -6.23,4.83 -10.08,13.48 -11.51,25.98l-7.83 0c0.33,-4.79 0.98,-9.83 1.97,-15.03 1.02,-5.2 2.33,-10.53 3.93,-15.98 -0.66,-2.99 -1.15,-6.02 -1.52,-9.14 -0.37,-3.15 -0.57,-6.55 -0.66,-10.24l7.09 -0.24c0,1.76 0.24,2.66 0.69,2.66 0,1.85 1.31,3.16 3.94,3.85 2.58,0.74 7.7,1.11 15.28,1.11 1.85,0 5.41,-0.04 10.7,-0.12 5.28,-0.08 9.67,-0.13 13.19,-0.13l30.77 0 30.73 0 20.45 0c9.34,0 15.49,-0.49 18.52,-1.43 2.99,-0.98 4.46,-2.7 4.46,-5.2l0 0.74 0 -1.23 7.09 0c-0.08,4.35 -0.29,7.99 -0.61,11.02 -0.29,2.99 -0.74,5.78 -1.31,8.36 1.76,6.39 3.11,12.09 4.02,17 0.94,4.92 1.56,9.59 1.89,14.01l-8.07 0c-1.35,-11.63 -4.88,-19.75 -10.61,-24.42 -5.69,-4.63 -16.67,-7.58 -32.94,-8.77l-16.22 0c-0.25,11.06 -0.45,21.71 -0.57,31.96 -0.12,10.24 -0.17,20.32 -0.17,30.28l0 47.86c0,14.79 0.33,24.95 1.02,30.52 0.7,5.57 1.93,9.83 3.69,12.79 1.6,2.87 4.3,5.04 8.15,6.51 3.85,1.48 9.26,2.5 16.14,3.07l0 6.15c-6.72,-0.08 -13.85,-0.57 -21.39,-1.52 -7.54,-0.9 -15.61,-2.21 -24.25,-3.89 -8.77,1.68 -16.92,2.99 -24.54,3.89 -7.62,0.94 -14.79,1.43 -21.51,1.52z"/>
    </g>
   </g>
  </g>
 </g>
</svg>
